<?xml version="1.0" encoding="utf-8"?>
<!-- Generator: Adobe Illustrator 16.0.0, SVG Export Plug-In . SVG Version: 6.00 Build 0)  -->
<!DOCTYPE svg PUBLIC "-//W3C//DTD SVG 1.1//EN" "http://www.w3.org/Graphics/SVG/1.1/DTD/svg11.dtd">
<svg version="1.1" id="Layer_1" xmlns="http://www.w3.org/2000/svg" xmlns:xlink="http://www.w3.org/1999/xlink" x="0px" y="0px"
	 width="432px" height="648px" viewBox="0 0 432 648" enable-background="new 0 0 432 648" xml:space="preserve">
<path fill-rule="evenodd" clip-rule="evenodd" fill="#FFFFFF" d="M870.624,175.864c0.028,0.478,0.082,0.955,0.082,1.432
	c0.004,28.078,0.004,56.155,0.004,84.232c0,0.2-0.018,0.401,0.001,0.6c0.097,1.023-0.324,1.406-1.384,1.396
	c-4.559-0.045-9.118-0.019-13.678-0.019c-3.48,0-6.961-0.05-10.438,0.027c-1.193,0.026-1.542-0.273-1.539-1.517
	c0.043-19.078,0.03-38.156,0.03-57.235c0-1.771-0.001-1.778-1.764-1.778c-52.794-0.001-105.589,0.003-158.384-0.023
	c-1.181,0-1.58,0.28-1.579,1.528c0.028,79.792,0.028,159.585,0.003,239.377c0,1.19,0.295,1.557,1.534,1.556
	c52.835-0.032,105.67-0.027,158.505-0.031c0.509,0,1.018-0.063,1.685-0.106c0-0.593,0-1.097,0-1.601c0-19.078,0-38.156,0-57.234
	c0-1.611,0.001-1.613,1.626-1.613c7.919-0.001,15.838-0.002,23.757,0c1.571,0.001,1.622,0.045,1.622,1.617
	c0.003,28.197-0.005,56.395,0.026,84.592c0.002,1.233-0.383,1.53-1.576,1.529c-71.033-0.027-142.067-0.024-213.101-0.026
	c-0.397,0-0.795-0.04-1.193-0.062c0-98.857,0-197.714,0-296.64C726.783,175.864,798.703,175.864,870.624,175.864z"/>
<path fill-rule="evenodd" clip-rule="evenodd" fill="#FFFFFF" d="M762.679,337.685c0-9.064,0-17.895,0-26.896
	c0.687-0.033,1.347-0.092,2.007-0.092c50.197-0.004,100.395-0.004,150.593-0.004c0.359,0,0.727,0.042,1.078-0.013
	c0.323-0.051,0.63-0.207,0.943-0.316c-0.124-0.26-0.226-0.534-0.375-0.78c-2.566-4.222-5.11-8.458-7.718-12.654
	c-2.176-3.503-4.451-6.945-6.636-10.442c-1.14-1.824-2.128-3.743-3.277-5.561c-2.142-3.387-4.388-6.708-6.521-10.101
	c-2.469-3.926-4.861-7.9-7.291-11.851c-0.263-0.427-0.522-0.864-0.84-1.25c-0.615-0.75-0.104-0.968,0.508-1.095
	c0.346-0.071,0.717-0.024,1.077-0.024c7.319,0,14.642,0.117,21.957-0.069c2.301-0.058,3.468,0.826,4.528,2.653
	c2.808,4.842,5.779,9.59,8.64,14.402c2.591,4.356,5.089,8.769,7.688,13.121c2.526,4.23,5.13,8.415,7.696,12.622
	c2.004,3.287,4.011,6.572,5.998,9.868c2.316,3.842,4.614,7.695,6.919,11.544c0.418,0.697,0.813,1.408,1.25,2.094
	c0.583,0.917,0.636,1.741,0.008,2.729c-2.296,3.612-4.526,7.267-6.744,10.928c-1.595,2.632-3.12,5.307-4.693,7.952
	c-2.301,3.866-4.615,7.724-6.928,11.583c-2.729,4.553-5.447,9.109-8.193,13.649c-2.652,4.384-5.35,8.74-7.998,13.126
	c-1.595,2.641-3.102,5.335-4.729,7.954c-0.277,0.445-0.967,0.9-1.469,0.903c-8.279,0.056-16.56,0.044-24.839,0.033
	c-0.792-0.001-1.24-0.161-0.618-1.115c1.97-3.021,3.87-6.086,5.774-9.147c1.32-2.123,2.574-4.286,3.911-6.398
	c1.61-2.544,3.313-5.029,4.91-7.58c2.167-3.462,4.266-6.966,6.406-10.444c2.729-4.434,5.466-8.86,8.205-13.287
	c1.014-1.639,2.048-3.266,3.059-4.906c0.151-0.245,0.225-0.538,0.335-0.81c-0.313-0.108-0.618-0.263-0.939-0.313
	c-0.352-0.055-0.718-0.013-1.078-0.013c-50.197,0-100.395,0-150.593,0C764.059,337.685,763.428,337.685,762.679,337.685z"/>
<g>
</g>
<g>
</g>
<g>
</g>
<g>
</g>
<g>
</g>
<g>
</g>
</svg>
